<svg width="423" height="39" viewBox="0 0 423 39" fill="none" xmlns="http://www.w3.org/2000/svg">
<path d="M421.712 25.4656L415.725 19.4784C417.166 17.5595 417.944 15.2237 417.942 12.8237C417.942 6.69338 412.954 1.70587 406.824 1.70587C400.694 1.70587 395.706 6.69338 395.706 12.8237C395.706 18.9541 400.694 23.9416 406.824 23.9416C409.224 23.9442 411.56 23.1661 413.479 21.7246L419.466 27.7118C419.769 27.9827 420.164 28.1273 420.57 28.116C420.977 28.1046 421.363 27.9381 421.651 27.6506C421.938 27.3632 422.105 26.9766 422.116 26.5703C422.128 26.1639 421.983 25.7686 421.712 25.4656ZM398.883 12.8237C398.883 11.2531 399.348 9.71771 400.221 8.41176C401.094 7.10582 402.334 6.08796 403.785 5.4869C405.236 4.88584 406.833 4.72857 408.373 5.03499C409.914 5.34141 411.329 6.09775 412.439 7.20836C413.55 8.31897 414.306 9.73398 414.613 11.2744C414.919 12.8149 414.762 14.4116 414.161 15.8627C413.56 17.3138 412.542 18.5541 411.236 19.4267C409.93 20.2993 408.395 20.765 406.824 20.765C404.719 20.7625 402.7 19.925 401.211 18.4363C399.723 16.9476 398.885 14.9291 398.883 12.8237Z" fill="black"/>
<line y1="38.25" x2="423" y2="38.25" stroke="#414141" stroke-width="1.5"/>
</svg>
