<svg width="147" height="51" viewBox="0 0 147 51" fill="none" xmlns="http://www.w3.org/2000/svg">
<g clip-path="url(#clip0_880_1149)">
<path d="M26.209 4.9756C26.209 3.68463 26.6083 2.70968 27.407 2.05075C28.2056 1.39181 29.1241 1.06235 30.1623 1.06235C30.6682 1.06235 31.1607 1.14976 31.6399 1.32458C32.1191 1.49939 32.5384 1.74817 32.8978 2.07092C33.2572 2.39366 33.5433 2.79709 33.7563 3.2812C33.9693 3.76531 34.0758 4.33011 34.0758 4.9756V9.53433H35.4335C36.0458 9.53433 36.545 9.63519 36.931 9.8369C37.317 10.0386 37.6165 10.3076 37.8295 10.6438C38.0425 10.9799 38.1889 11.3565 38.2687 11.7734C38.3486 12.1902 38.3885 12.6138 38.3885 13.0442C38.3885 13.5014 38.3486 13.9384 38.2687 14.3553C38.1889 14.7722 38.0358 15.142 37.8095 15.4647C37.5832 15.7875 37.2771 16.0497 36.8911 16.2514C36.505 16.4531 36.0192 16.554 35.4335 16.554H34.0758V22.8474H35.4335C36.0458 22.8474 36.545 22.9483 36.931 23.15C37.317 23.3517 37.6165 23.6207 37.8295 23.9569C38.0425 24.2931 38.1889 24.6696 38.2687 25.0865C38.3486 25.5034 38.3885 25.9269 38.3885 26.3573C38.3885 26.8145 38.3486 27.2515 38.2687 27.6684C38.1889 28.0853 38.0358 28.4551 37.8095 28.7778C37.5832 29.1006 37.2771 29.3628 36.8911 29.5645C36.505 29.7662 36.0192 29.8671 35.4335 29.8671H34.0758V38.9442H26.209V4.9756Z" fill="black"/>
<path d="M81.9157 22.5247H76.6845V27.3255C76.6845 29.1006 76.4183 30.6672 75.8858 32.0254C75.3534 33.3836 74.608 34.52 73.6496 35.4344C72.6912 36.3488 71.5332 37.0347 70.1754 37.4919C68.8177 37.9491 67.3136 38.1777 65.663 38.1777C64.0124 38.1777 62.5083 37.9491 61.1506 37.4919C59.7928 37.0347 58.6281 36.3488 57.6564 35.4344C56.6847 34.52 55.9327 33.3836 55.4002 32.0254C54.8678 30.6672 54.6016 29.1006 54.6016 27.3255V12.56C54.6016 10.785 54.8678 9.21831 55.4002 7.86011C55.9327 6.5019 56.6847 5.36558 57.6564 4.45114C58.6281 3.5367 59.7928 2.85088 61.1506 2.39366C62.5083 1.93644 64.0124 1.70783 65.663 1.70783C67.3136 1.70783 68.8177 1.93644 70.1754 2.39366C71.5332 2.85088 72.6912 3.5367 73.6496 4.45114C74.608 5.36558 75.3534 6.5019 75.8858 7.86011C76.4183 9.21831 76.6845 10.785 76.6845 12.56V15.6261H81.9157V4.9756C81.9157 3.68463 82.3151 2.70968 83.1137 2.05075C83.9124 1.39181 84.8308 1.06235 85.8691 1.06235C86.3749 1.06235 86.8674 1.14976 87.3466 1.32458C87.8258 1.49939 88.2518 1.74817 88.6245 2.07092C88.9972 2.39366 89.2967 2.79709 89.523 3.2812C89.7492 3.76531 89.8624 4.33011 89.8624 4.9756V38.9442H81.9157V22.5247ZM62.4284 27.5272C62.4284 28.8989 62.7279 29.9142 63.3269 30.5731C63.9259 31.232 64.7046 31.5615 65.663 31.5615C66.6214 31.5615 67.4001 31.232 67.9991 30.5731C68.5981 29.9142 68.8976 28.8989 68.8976 27.5272V12.3583C68.8976 10.9867 68.5981 9.97138 67.9991 9.31245C67.4001 8.65351 66.6214 8.32405 65.663 8.32405C64.7046 8.32405 63.9259 8.65351 63.3269 9.31245C62.7279 9.97138 62.4284 10.9867 62.4284 12.3583V27.5272Z" fill="black"/>
<path d="M113.403 32.8726C112.99 32.2944 112.251 32.0053 111.187 32.0053H110.628V8.16269H111.027C112.092 8.16269 112.83 7.87357 113.243 7.29532C113.656 6.71708 113.862 6.03797 113.862 5.25801C113.862 4.47805 113.656 3.83929 113.243 3.26105C112.83 2.6828 112.092 2.39368 111.027 2.39368H99.5261C97.6892 2.39368 96.3581 2.79038 95.5328 3.58379C94.7076 4.3772 94.2949 5.54041 94.2949 7.07344V33.0945C94.2949 34.6276 94.7076 35.7908 95.5328 36.5842C96.3581 37.3776 97.6892 37.7743 99.5261 37.7743H111.187C112.251 37.7743 112.99 37.4852 113.403 36.9069C113.816 36.3287 114.022 35.6496 114.022 34.8696C114.022 34.0897 113.816 33.4509 113.403 32.8726ZM103.919 32.0053H102.122C101.643 32.0053 101.403 31.7767 101.403 31.3195V8.84852C101.403 8.3913 101.643 8.16269 102.122 8.16269H103.919V32.0053Z" fill="black"/>
<path d="M133.157 1.95663C132.951 1.53975 132.678 1.18339 132.338 0.887541C131.999 0.591694 131.606 0.369809 131.174 0.221885C130.734 0.0739618 130.288 0 129.822 0C128.864 0 128.025 0.289123 127.307 0.86737C126.581 1.44562 126.222 2.29954 126.222 3.42914V14.6041H124.338V3.42914C124.338 2.29954 123.979 1.44562 123.253 0.86737C122.528 0.289123 121.703 0 120.778 0C119.853 0 118.987 0.289123 118.282 0.86737C117.57 1.44562 117.217 2.29954 117.217 3.42914V41.6539C117.217 42.5684 116.485 43.308 115.58 43.308H4.33301V51H120.764C122.734 51 124.332 49.4266 124.332 47.4835V21.2203H126.215V37.8819H133.463V3.42914C133.463 2.86434 133.363 2.3735 133.157 1.95663Z" fill="#4994F1"/>
<path d="M23.4939 15.5051C23.4939 21.227 15.1279 37.8953 12.519 42.9583C12.1862 43.5971 11.3143 43.5971 10.9816 42.9583C8.36596 37.8953 0 21.227 0 15.5051C0 8.72077 5.25784 2.39368 11.747 2.39368C18.2361 2.39368 23.4939 8.72077 23.4939 15.5051Z" fill="#4994F1"/>
<path d="M11.7467 21.3279C15.1761 21.3279 17.9563 18.5192 17.9563 15.0546C17.9563 11.5899 15.1761 8.78128 11.7467 8.78128C8.31723 8.78128 5.53711 11.5899 5.53711 15.0546C5.53711 18.5192 8.31723 21.3279 11.7467 21.3279Z" fill="white"/>
<path d="M138.095 33.1752C138.095 31.8574 138.481 30.8219 139.259 30.0621C140.038 29.3023 141.13 28.9258 142.547 28.9258C143.965 28.9258 145.056 29.309 145.835 30.0823C146.614 30.8555 147 31.8842 147 33.1752C147 34.4662 146.614 35.4949 145.835 36.2682C145.056 37.0414 143.965 37.4247 142.547 37.4247C141.13 37.4247 140.038 37.0481 139.259 36.2883C138.481 35.5285 138.095 34.4931 138.095 33.1752ZM138.301 26.949V4.70666C138.301 4.03428 138.421 3.43586 138.654 2.91813C138.887 2.40039 139.2 1.96335 139.592 1.61371C139.978 1.26407 140.431 0.995121 140.943 0.813579C141.456 0.632036 141.988 0.537903 142.547 0.537903C143.073 0.537903 143.592 0.632036 144.111 0.813579C144.624 0.995121 145.083 1.26407 145.482 1.61371C145.882 1.96335 146.201 2.40039 146.441 2.91813C146.674 3.43586 146.793 4.03428 146.793 4.70666V26.949H138.301Z" fill="black"/>
</g>
<defs>
<clipPath id="clip0_880_1149">
<rect width="147" height="51" fill="white"/>
</clipPath>
</defs>
</svg>
